<svg id="Final_Icons" data-name="Final Icons" xmlns="http://www.w3.org/2000/svg" viewBox="0 0 256 256">
  <path d="M128,79.62C120.73,21.34,191.9-.49,219.77,42.9c19.47-10.28,23.78-13.07,27.7-14.62-5,19.7-18.25,31.07-22.76,33.44L256,51.61C245.56,74,230.53,79.83,230.53,79.83,236.31,176.1,138,284.7,0,212.43c48.23,3.07,74.39-20.66,74.39-20.66-28.56.78-49.94-25.84-49.18-35.31,14.43,4.38,33.3,6.28,41.53.7-48.65-16-58.28-46.08-58.95-59.65,7.07,2.84,14.92,6.25,24.07,7.57C-2.81,82.24,6.56,48.87,15.58,37,50.72,82.62,128,79.62,128,79.62Z"/>
</svg>
